Coordinates
version=1
nRows=9
nColumns=36
inDegrees=yes

Units are S.I. units (second, meters, Newtons, ...)
If the header above contains a line with 'inDegrees', this indicates whether rotational values are in degrees (yes) or radians (no).

endheader
time	pelvis_tilt	pelvis_list	pelvis_rotation	pelvis_tx	pelvis_ty	pelvis_tz	hip_flexion_r	hip_adduction_r	hip_rotation_r	knee_angle_r	knee_angle_r_beta	ankle_angle_r	subtalar_angle_r	mtp_angle_r	hip_flexion_l	hip_adduction_l	hip_rotation_l	knee_angle_l	knee_angle_l_beta	ankle_angle_l	subtalar_angle_l	mtp_angle_l	lumbar_extension	lumbar_bending	lumbar_rotation	arm_flex_r	arm_add_r	arm_rot_r	elbow_flex_r	pro_sup_r	arm_flex_l	arm_add_l	arm_rot_l	elbow_flex_l	pro_sup_l
      1.20000000	     -6.99267937	     -0.08532911	     -5.42913608	      1.08896792	      1.02237941	     -0.31286831	     29.19297576	      2.55092886	     -2.21000291	      7.95841493	      0.13890054	     -4.54841019	    -10.62514633	     -7.24975893	     -3.05355589	      0.96158279	     -5.27851710	      7.24980687	      0.12653300	     12.93746037	      0.14545381	     -7.24975893	    -10.44093709	    -20.73902028	    -10.09932680	     -9.76400291	     -7.17048399	      0.86139235	     42.11214481	    109.81617048	     16.71772185	    -22.67335045	     -7.72442423	     52.85512737	    110.74488414
      1.21000000	     -7.12362467	      0.31452206	     -5.05827761	      1.09866690	      1.01952472	     -0.31386848	     29.06400274	      2.12913339	     -2.22765845	      4.94345244	      0.08627952	     -3.44976680	     -7.22220999	     -7.26110313	     -3.85615042	      1.51599835	     -5.00061311	      6.50355547	      0.11350846	     13.18363133	      0.44772803	     -7.26110313	    -10.52120774	    -20.49448974	     -9.97899622	     -9.87172883	     -7.19965740	      0.33862943	     41.92334118	    109.87643939	     16.91021265	    -22.26974084	     -7.18178984	     53.22807691	    110.55445210
      1.22000000	     -7.15254463	      0.67189507	     -4.70293511	      1.10853121	      1.01679750	     -0.31476719	     28.84943377	      1.74077688	     -2.17870768	      2.20219229	      0.03843551	     -2.63095720	     -4.15196285	     -7.26818363	     -4.77158660	      1.99143452	     -4.93424403	      5.78791832	      0.10101823	     13.46534807	      1.06459603	     -7.26818363	    -10.71783525	    -20.19820118	     -9.86871797	     -9.86606119	     -7.23386866	     -0.08199256	     41.59994087	    109.87711222	     17.01664947	    -21.86997741	     -6.71016994	     53.62033043	    110.48493794
      1.23000000	     -7.33726119	      1.20487284	     -4.44565733	      1.11827782	      1.01368152	     -0.31571908	     29.34441679	      1.17464934	     -2.78264249	      0.75826076	      0.01323415	     -0.85865778	     -0.15628564	     -7.27571321	     -5.42019746	      2.64153162	     -4.99866914	      5.24721118	      0.09158111	     13.77521595	      1.74732208	     -7.27571321	    -10.69136937	    -20.04471642	     -9.63299398	     -9.88448590	     -7.27098412	     -0.58735694	     41.29948834	    109.86796332	     17.05916700	    -21.42932409	     -6.18943298	     53.91197653	    110.42453674
      1.24000000	     -7.55608232	      1.76955525	     -4.23069724	      1.12799465	      1.01048062	     -0.31667542	     30.25107497	      0.57274953	     -3.80856382	      0.38921432	      0.00679307	      1.22655953	      3.92712952	     -7.28321938	     -5.97184357	      3.31835205	     -5.07480822	      4.83722394	      0.08442548	     14.04530248	      2.38220077	     -7.28321938	    -10.60323308	    -19.90007854	     -9.32909433	     -9.87410455	     -7.33433929	     -1.08724371	     40.97203210	    109.85557714	     17.06683056	    -20.95727372	     -5.67080773	     54.14423090	    110.38789840
      1.25000000	     -7.69036187	      2.23153257	     -4.02007762	      1.13798944	      1.00749642	     -0.31747440	     30.99667921	      0.08006911	     -4.47844209	      0.28626561	      0.00499628	      2.81019667	      6.84774936	     -7.28940646	     -6.59552395	      3.86488469	     -5.19789506	      4.51048602	      0.07872283	     14.28564326	      3.01891763	     -7.28940646	    -10.60913327	    -19.63986340	     -9.04407395	     -9.77763715	     -7.39074046	     -1.56635816	     40.54680056	    109.82601147	     16.97415629	    -20.49542440	     -5.18961059	     54.32607433	    110.38678098
      1.26000000	     -7.78369158	      2.50450226	     -3.72060086	      1.14816444	      1.00474643	     -0.31817581	     31.49708038	     -0.22317186	     -4.36145257	      0.24681987	      0.00430782	      2.91180216	      6.97453394	     -7.28968616	     -7.12220732	      4.16639889	     -5.26218130	      4.50555441	      0.07863676	     14.33927945	      3.08381070	     -7.28968616	    -10.67607692	    -19.12872880	     -8.94876121	     -9.66555547	     -7.58138635	     -1.64350164	     40.42128977	    109.80565251	     16.73365148	    -20.00427082	     -4.98659950	     54.40142892	    110.40274055
      1.27000000	     -7.71002639	      2.63015257	     -3.55367662	      1.15897292	      1.00236154	     -0.31849359	     31.58346060	     -0.34358619	     -3.71651337	      0.26585381	      0.00464002	      3.41138992	      7.60326510	     -7.29142884	     -8.05179800	      4.32522949	     -5.04354227	      4.18930697	      0.07311720	     14.68476758	      3.69503935	     -7.29142884	    -10.86663552	    -18.52425669	     -8.48727864	     -9.46567314	     -7.63610999	     -2.06628134	     39.56386833	    109.71106204	     16.46533171	    -19.47295318	     -4.56521584	     54.68968200	    110.44271749
      1.28000000	     -7.39745311	      2.54284339	     -3.22021868	      1.17014139	      1.00057471	     -0.31896724	     31.20463404	     -0.34808886	     -3.10262224	      0.33850708	      0.00590806	      3.25838269	      7.09534860	     -7.29364558	     -9.05879936	      4.19697471	     -5.07801192	      4.25331153	      0.07423429	     14.95618781	      4.26818374	     -7.29364558	    -11.35340825	    -17.63507208	     -8.31389254	     -9.15426205	     -7.73168555	     -2.52283892	     38.93171996	    109.63033125	     16.14265298	    -18.98311434	     -4.13230270	     54.66663752	    110.45153513
